<?xml version="1.0" standalone="no"?>
<!DOCTYPE svg PUBLIC "-//W3C//DTD SVG 20010904//EN"
 "http://www.w3.org/TR/2001/REC-SVG-20010904/DTD/svg10.dtd">
<svg version="1.0" xmlns="http://www.w3.org/2000/svg"
 width="200.000000pt" height="159.000000pt" viewBox="0 0 200.000000 159.000000"
 preserveAspectRatio="xMidYMid meet">
<metadata>
Created by potrace 1.16, written by Peter Selinger 2001-2019
</metadata>
<g transform="translate(0.000000,159.000000) scale(0.100000,-0.100000)"
fill="#fff" stroke="none">
<path d="M398 1330 c-31 -4 -96 -15 -143 -25 l-85 -18 0 -68 c0 -57 3 -70 19
-78 13 -8 22 -30 30 -77 42 -237 180 -358 390 -340 80 7 155 35 207 79 43 36
89 127 114 227 24 95 33 110 65 110 33 0 50 -28 63 -99 32 -180 142 -286 323
-311 232 -32 371 87 404 348 5 37 13 55 26 63 16 8 19 21 19 78 l0 68 -104 22
c-202 43 -386 39 -565 -14 -110 -32 -196 -32 -315 0 -154 41 -307 53 -448 35z
m335 -65 c108 -28 132 -59 131 -169 -2 -199 -109 -316 -294 -319 -164 -2 -265
106 -277 299 -4 62 -2 87 11 112 18 35 76 69 139 82 71 14 229 11 290 -5z
m899 -12 c70 -32 83 -59 82 -168 -3 -204 -96 -305 -282 -305 -180 0 -290 106
-308 299 -8 82 12 133 60 158 86 45 361 54 448 16z"/>
<path d="M701 679 c-44 -22 -96 -62 -172 -135 -122 -116 -167 -144 -234 -144
-60 0 -77 10 -152 83 -34 34 -66 58 -69 54 -12 -11 16 -88 52 -148 71 -117
206 -217 326 -239 147 -28 350 48 500 188 l47 44 66 -60 c140 -128 337 -198
482 -171 32 6 83 23 113 37 74 36 189 150 227 227 33 64 50 125 36 125 -5 0
-33 -25 -63 -56 -68 -69 -96 -84 -155 -84 -69 0 -104 21 -231 141 -142 133
-207 169 -308 169 -73 0 -121 -16 -150 -49 l-19 -21 -15 21 c-22 32 -74 49
-149 49 -55 0 -80 -6 -132 -31z"/>
</g>
</svg>
